<svg width="34" height="34" viewBox="0 0 34 34" fill="none" xmlns="http://www.w3.org/2000/svg">
<g clip-path="url(#clip0_611_2711)">
<path d="M16.5119 0.394531C7.40694 0.394531 0 7.80148 0 16.9064C0 26.0113 7.40694 33.4182 16.5119 33.4182C25.6168 33.4182 33.0237 26.0113 33.0237 16.9064C33.0237 7.80148 25.6168 0.394531 16.5119 0.394531ZM19.9518 22.8644C19.7358 22.9896 19.4991 23.0488 19.2652 23.0488C18.7891 23.0488 18.3268 22.8025 18.0722 22.3608L15.3203 17.5944C15.1992 17.3852 15.1359 17.1486 15.1359 16.9064V8.65046C15.1359 7.89091 15.7509 7.27447 16.5119 7.27447C17.2728 7.27447 17.8878 7.89091 17.8878 8.65046V16.5376L20.4554 20.9848C20.8352 21.6425 20.6096 22.4846 19.9518 22.8644Z" fill="#F8F8F8"/>
</g>
<defs>
<clipPath id="clip0_611_2711">
<rect width="33.0237" height="33.0237" fill="white" transform="translate(0 0.394531)"/>
</clipPath>
</defs>
</svg>
