<svg width="34" height="34" viewBox="0 0 34 34" fill="none" xmlns="http://www.w3.org/2000/svg">
<path d="M33.0237 17.2352C33.0237 7.93178 25.6274 0.394531 16.5119 0.394531C7.39009 0.394531 0 7.93178 0 17.2352C0 25.6387 6.03612 32.6065 13.9319 33.8685V22.1043H9.7389V17.2363H13.9319V13.5239C13.9319 9.3043 16.3932 6.97397 20.1661 6.97397C21.9732 6.97397 23.8648 7.30236 23.8648 7.30236V11.4462H21.7791C19.7317 11.4462 19.0918 12.7461 19.0918 14.0776V17.2352H23.6708L22.935 22.1032H19.0918V33.8675C26.9814 32.6055 33.0237 25.6376 33.0237 17.2341V17.2352Z" fill="#F8F8F8"/>
</svg>
