<?xml version="1.0" encoding="UTF-8"?>
<svg id="Layer_2" data-name="Layer 2" xmlns="http://www.w3.org/2000/svg" viewBox="0 0 32 32">
  <defs>
    <style>
      .cls-1 {
        fill: #88d0c7;
      }

      .cls-1, .cls-2, .cls-3 {
        stroke-width: 0px;
      }

      .cls-2 {
        fill: #163861;
      }

      .cls-3 {
        fill: #fff;
      }
    </style>
  </defs>
  <g id="Layer_1-2" data-name="Layer 1">
    <path class="cls-3" d="m28.78,0H3.22C1.44,0,0,1.44,0,3.22v25.56c0,1.78,1.44,3.22,3.22,3.22h25.56c1.78,0,3.22-1.44,3.22-3.22V3.22c0-1.78-1.44-3.22-3.22-3.22Z"/>
    <g>
      <path class="cls-2" d="m18.88,6.24l1.59-3.23c-.11-.06-.24-.09-.37-.09h-8.12c-.43,0-.78.35-.78.77v7.47H3.7c-.43,0-.78.35-.78.77v8.08c0,.43.35.77.78.77h7.98l7.18-14.56h.02Z"/>
      <path class="cls-1" d="m28.3,11.2h-8l-6.42,12.97h0s-2.37,4.79-2.37,4.79c.12.07.26.12.4.12h8.12c.43,0,.78-.35.78-.77v-7.47h7.5c.43,0,.78-.35.78-.77v-8.08c0-.43-.35-.77-.78-.77Z"/>
    </g>
  </g>
</svg>