<?xml version="1.0" encoding="utf-8"?>
<!-- Generator: Adobe Illustrator 28.0.0, SVG Export Plug-In . SVG Version: 6.00 Build 0)  -->
<svg version="1.1" id="Layer_1" xmlns="http://www.w3.org/2000/svg" xmlns:xlink="http://www.w3.org/1999/xlink" x="0px" y="0px"
	 viewBox="0 0 32 32" style="enable-background:new 0 0 32 32;" xml:space="preserve">
<style type="text/css">
	.st0{fill:#163861;}
	.st1{fill:#88D0C7;}
</style>
<g>
	<g>
		<path class="st0" d="M19.5,4.1l1.9-3.9C21.3,0,21.2,0,21,0h-9.9c-0.5,0-1,0.4-1,0.9v9.1H1c-0.5,0-1,0.4-1,0.9v9.9
			c0,0.5,0.4,0.9,1,0.9h9.8L19.5,4.1L19.5,4.1z"/>
		<path class="st1" d="M31,10.1h-9.8L13.4,26l0,0l-2.9,5.9c0.1,0.1,0.3,0.1,0.5,0.1h9.9c0.5,0,1-0.4,1-0.9v-9.1H31
			c0.5,0,1-0.4,1-0.9v-9.9C32,10.6,31.6,10.1,31,10.1z"/>
	</g>
</g>
</svg>
