<svg width="33" height="35" viewBox="0 0 33 35" fill="none" xmlns="http://www.w3.org/2000/svg">
<path d="M32.3525 12.5809C31.6542 10.0134 30.3954 7.61235 28.597 5.65555C23.8241 0.460718 15.6991 -1.11005 9.41134 1.94828C2.78821 5.16968 -1.14062 13.0751 0.294823 20.453C1.59903 27.1571 6.8499 32.8494 13.4487 34.1257C20.2403 35.4385 27.8129 31.8427 31.0791 25.5447C33.1237 21.6045 33.5157 16.8589 32.3525 12.5809ZM20.6065 9.06664L19.0042 9.06331C18.9928 9.06331 18.907 9.06165 18.847 8.98844C18.7903 8.91855 18.8 8.83868 18.8017 8.82537C18.8017 8.19307 18.8017 7.56244 18.8 6.93014C19.4027 7.6423 20.0054 8.35614 20.6065 9.06831V9.06664ZM11.5888 6.45924H17.6028C17.6028 7.33947 17.5995 8.23301 17.6028 9.12654C17.6092 10.2431 17.781 10.4194 18.8697 10.4277C19.7219 10.4344 20.5741 10.4277 21.4895 10.4277V13.1866H11.5872V6.45758L11.5888 6.45924ZM21.4571 28.192H11.5823V22.0055H21.4571V28.192ZM27.4856 24.8808H23.1242C23.1242 23.8009 23.1274 22.7093 23.1242 21.6178C23.1209 20.5296 22.9136 20.3166 21.8524 20.3166C18.2783 20.3149 14.7043 20.3132 11.1303 20.3166C10.1793 20.3166 9.9476 20.5578 9.94274 21.5362C9.93626 22.6344 9.94274 23.7343 9.94274 24.9057H5.59591V14.9587H27.4872V24.8791L27.4856 24.8808Z" fill="#F8F8F8"/>
</svg>
