<svg width="33" height="35" viewBox="0 0 33 35" fill="none" xmlns="http://www.w3.org/2000/svg">
<path d="M16.4956 11.747C13.4658 11.747 10.9933 14.2993 10.9933 17.4268C10.9933 20.5544 13.4658 23.1067 16.4956 23.1067C19.5253 23.1067 21.9978 20.5544 21.9978 17.4268C21.9978 14.2993 19.5253 11.747 16.4956 11.747ZM32.9982 17.4268C32.9982 15.0748 33.0188 12.7441 32.8908 10.3963C32.7629 7.66925 32.1602 5.24903 30.2285 3.2549C28.2926 1.25651 25.9522 0.638673 23.3104 0.506583C21.0319 0.374494 18.7741 0.395799 16.4997 0.395799C14.2212 0.395799 11.9633 0.374494 9.68897 0.506583C7.04723 0.638673 4.70269 1.26077 2.77092 3.2549C0.835026 5.25329 0.236507 7.66925 0.108548 10.3963C-0.0194109 12.7483 0.00122776 15.0791 0.00122776 17.4268C0.00122776 19.7746 -0.0194109 22.1096 0.108548 24.4574C0.236507 27.1844 0.839153 29.6047 2.77092 31.5988C4.70682 33.5972 7.04723 34.215 9.68897 34.3471C11.9675 34.4792 14.2253 34.4579 16.4997 34.4579C18.7782 34.4579 21.036 34.4792 23.3104 34.3471C25.9522 34.215 28.2967 33.5929 30.2285 31.5988C32.1644 29.6004 32.7629 27.1844 32.8908 24.4574C33.0229 22.1096 32.9982 19.7789 32.9982 17.4268ZM16.4956 26.1661C11.8106 26.1661 8.02963 22.263 8.02963 17.4268C8.02963 12.5907 11.8106 8.68762 16.4956 8.68762C21.1805 8.68762 24.9615 12.5907 24.9615 17.4268C24.9615 22.263 21.1805 26.1661 16.4956 26.1661ZM25.3082 10.3707C24.2144 10.3707 23.3311 9.45886 23.3311 8.3297C23.3311 7.20055 24.2144 6.2887 25.3082 6.2887C26.4021 6.2887 27.2854 7.20055 27.2854 8.3297C27.2857 8.59783 27.2348 8.86338 27.1356 9.11116C27.0363 9.35893 26.8907 9.58407 26.707 9.77366C26.5234 9.96325 26.3053 10.1136 26.0653 10.216C25.8252 10.3185 25.568 10.371 25.3082 10.3707Z" fill="#F8F8F8"/>
</svg>
