<svg width="42" height="69" viewBox="0 0 42 69" fill="none" xmlns="http://www.w3.org/2000/svg">
<path fill-rule="evenodd" clip-rule="evenodd" d="M38 21.3387L22 34.5L38 47.6613V60L7 34.5L38 9V21.3387Z" fill="#E89454"/>
<path d="M22 34.5L19.4589 37.5892L15.7035 34.5L19.4589 31.4108L22 34.5ZM38 21.3387H42V23.2278L40.5411 24.4279L38 21.3387ZM38 47.6613L40.5411 44.5721L42 45.7722V47.6613H38ZM38 60H42V68.4697L35.4589 63.0892L38 60ZM7 34.5L4.45892 37.5892L0.70347 34.5L4.45892 31.4108L7 34.5ZM38 9L35.4589 5.91084L42 0.530274V9H38ZM19.4589 31.4108L35.4589 18.2496L40.5411 24.4279L24.5411 37.5892L19.4589 31.4108ZM35.4589 50.7504L19.4589 37.5892L24.5411 31.4108L40.5411 44.5721L35.4589 50.7504ZM42 47.6613V60H34V47.6613H42ZM35.4589 63.0892L4.45892 37.5892L9.54108 31.4108L40.5411 56.9108L35.4589 63.0892ZM4.45892 31.4108L35.4589 5.91084L40.5411 12.0892L9.54108 37.5892L4.45892 31.4108ZM42 9V21.3387H34V9H42Z" fill="#FF9040"/>
</svg>
