<svg width="87" height="87" viewBox="0 0 87 87" fill="none" xmlns="http://www.w3.org/2000/svg">
<path d="M52.7116 11.0094L57.972 0.308988C57.602 0.114191 57.1917 0 56.7611 0H29.9345C28.5151 0 27.3648 1.14863 27.3648 2.56594V27.3252H2.56966C1.15029 27.3252 0 28.4739 0 29.8912V56.6791C0 58.0964 1.15029 59.245 2.56966 59.245H28.9389L52.6578 10.9892L52.7116 11.0094Z" fill="#F8F8F8"/>
<path d="M83.8569 27.4394H57.4271L36.1972 70.4223H36.177L28.3335 86.2949C28.7304 86.5367 29.1878 86.6777 29.6654 86.6777H56.4921C57.9115 86.6777 59.0617 85.5291 59.0617 84.1118V59.3525H83.8569C85.2763 59.3525 86.4266 58.2039 86.4266 56.7865V29.9987C86.4266 28.5814 85.2763 27.4327 83.8569 27.4327V27.4394Z" fill="#F8F8F8"/>
</svg>
