<svg width="249" height="79" viewBox="0 0 249 79" fill="none" xmlns="http://www.w3.org/2000/svg">
<path d="M91.4829 2.96034C92.4331 2.96034 93.324 2.99987 94.1456 3.06906C94.9672 3.1432 95.7492 3.25192 96.4817 3.40019L98.1842 0H102.525L100.218 4.66537C101.792 5.61426 102.94 7.03265 103.653 8.9156C104.366 10.7986 104.727 13.3339 104.727 16.5117V19.5313C104.727 22.1655 104.48 24.3499 103.985 26.0846C103.49 27.8242 102.713 29.2129 101.649 30.2557C100.585 31.2985 99.2236 32.03 97.5556 32.45C95.8877 32.8701 93.8635 33.0826 91.4829 33.0826C89.6516 33.0826 87.9491 32.9344 86.3752 32.6428L84.7271 36.043H80.3866L82.6929 31.3825C81.1191 30.4336 79.9807 29.0153 79.2878 27.1323C78.59 25.2493 78.2435 22.714 78.2435 19.5362V16.5166C78.2435 13.8824 78.491 11.698 78.9859 9.96334C79.4809 8.22865 80.2579 6.83497 81.322 5.79218C82.3861 4.74939 83.7471 4.01795 85.415 3.59787C87.083 3.17779 89.1023 2.96528 91.4878 2.96528L91.4829 2.96034ZM84.1233 19.5264C84.1233 21.2462 84.1975 22.6547 84.341 23.7519C84.4846 24.849 84.7617 25.7287 85.1676 26.386L94.2891 7.84316C93.522 7.73444 92.5866 7.68007 91.4878 7.68007C89.9486 7.68007 88.7063 7.78386 87.7511 7.98154C86.7959 8.18417 86.0585 8.59437 85.5239 9.21707C84.9944 9.83978 84.6281 10.7244 84.4252 11.8759C84.2223 13.0275 84.1233 14.5743 84.1233 16.5117V19.5313V19.5264ZM98.8474 16.5067C98.8474 14.7523 98.7633 13.324 98.5999 12.2268C98.4366 11.1297 98.1496 10.2697 97.7487 9.64704L88.5727 28.2443C88.9736 28.3184 89.4141 28.353 89.8892 28.353H91.4829C93.0221 28.353 94.2644 28.2542 95.2196 28.0515C96.1698 27.8489 96.9122 27.4387 97.4468 26.816C97.9763 26.1933 98.3426 25.3087 98.5455 24.1571C98.7484 23.0056 98.8474 21.4587 98.8474 19.5214V16.5018V16.5067Z" fill="#1F375E"/>
<path d="M115.546 20.1342C115.546 21.6712 115.63 22.9117 115.794 23.8655C115.957 24.8144 116.289 25.5656 116.784 26.1142C117.279 26.6628 117.967 27.0384 118.843 27.241C119.724 27.4436 120.892 27.5425 122.357 27.5425H126.395C128.023 27.5425 130.142 27.5079 132.74 27.4338L131.75 32.2079C130.617 32.2425 129.642 32.2721 128.84 32.2919C128.033 32.3116 127.291 32.3215 126.613 32.3215H122.357C119.758 32.3215 117.64 32.0201 116.012 31.4171C114.383 30.8142 113.101 29.9542 112.166 28.8373C111.231 27.7204 110.602 26.3663 110.27 24.7798C109.939 23.1885 109.775 21.4241 109.775 19.4868V16.4128C109.775 14.3272 109.949 12.4542 110.295 10.7887C110.642 9.12317 111.285 7.71466 112.215 6.56314C113.146 5.41163 114.448 4.52699 116.115 3.90428C117.783 3.28157 119.951 2.97021 122.624 2.97021C125.079 2.97021 127.083 3.25192 128.637 3.82026C130.191 4.38861 131.419 5.15464 132.319 6.12329C133.215 7.09195 133.829 8.20887 134.161 9.46912C134.492 10.7294 134.656 12.039 134.656 13.3932V14.2185C134.656 15.5331 134.581 16.5759 134.438 17.3469C134.289 18.1129 134.052 18.7109 133.725 19.131C133.393 19.5511 132.983 19.8278 132.488 19.9563C131.993 20.0848 131.399 20.1491 130.701 20.1491H115.536L115.546 20.1342ZM122.357 7.51698C120.892 7.51698 119.719 7.6257 118.843 7.8481C117.962 8.06555 117.279 8.48069 116.784 9.08363C116.289 9.68657 115.957 10.5218 115.794 11.5794C115.63 12.642 115.546 14.0109 115.546 15.6913H129.226V13.8281C129.226 12.6222 129.122 11.6041 128.924 10.7837C128.721 9.95839 128.355 9.31097 127.826 8.83652C127.296 8.36208 126.588 8.02107 125.712 7.82339C124.831 7.62076 123.718 7.52192 122.361 7.52192L122.357 7.51698Z" fill="#1F375E"/>
<path d="M140.268 32.2029V12.1774C140.268 8.88597 141.283 6.52858 143.317 5.1003C145.351 3.67202 148.528 2.96036 152.849 2.96036C157.17 2.96036 160.347 3.67202 162.381 5.1003C164.416 6.52858 165.43 8.88597 165.43 12.1774V32.198H159.659V13.3289C159.659 12.4147 159.605 11.6091 159.496 10.9172C159.387 10.2203 159.11 9.63718 158.67 9.16273C158.229 8.68829 157.551 8.33245 156.635 8.09523C155.72 7.85801 154.458 7.7394 152.844 7.7394C151.231 7.7394 149.969 7.85801 149.053 8.09523C148.137 8.33245 147.459 8.68829 147.019 9.16273C146.578 9.63718 146.306 10.2253 146.192 10.9172C146.083 11.614 146.029 12.4196 146.029 13.3289V32.198H140.258L140.268 32.2029Z" fill="#1F375E"/>
<path d="M187.351 15.4689C188.999 15.6171 190.335 15.9532 191.36 16.482C192.384 17.0108 193.171 17.6533 193.72 18.4045C194.27 19.1557 194.646 19.9613 194.849 20.8163C195.052 21.6762 195.151 22.5065 195.151 23.312V24.0781C195.151 26.6727 194.215 28.694 192.349 30.1421C190.483 31.5852 187.608 32.3067 183.723 32.3067C182.075 32.3067 180.159 32.2968 177.982 32.2771C175.804 32.2573 173.616 32.2326 171.419 32.1931L172.409 27.419C174.388 27.4585 176.403 27.4832 178.452 27.503C180.501 27.5227 182.352 27.5326 184 27.5326C186.123 27.5326 187.578 27.2954 188.37 26.821C189.157 26.3465 189.553 25.4125 189.553 24.0237C189.553 23.5839 189.508 23.1737 189.414 22.7882C189.32 22.4027 189.142 22.0666 188.865 21.775C188.588 21.4835 188.197 21.2363 187.682 21.0337C187.167 20.8311 186.475 20.6977 185.594 20.6235L179.001 20.0206C177.645 19.9119 176.492 19.6302 175.542 19.1705C174.591 18.7159 173.819 18.1475 173.235 17.4704C172.651 16.7934 172.221 16.0372 171.943 15.1921C171.671 14.352 171.533 13.492 171.533 12.6123V11.6783C171.533 9.19238 172.394 7.24518 174.116 5.83667C175.839 4.42816 178.655 3.72638 182.575 3.72638H188.068C189.974 3.72638 192.117 3.76097 194.497 3.83511L193.507 8.6092C191.968 8.57461 190.612 8.54496 189.444 8.52519C188.271 8.50542 187.237 8.49554 186.341 8.49554H181.976C180.11 8.49554 178.808 8.72287 178.076 9.18249C177.343 9.64211 176.977 10.4526 176.977 11.6239C176.977 12.0983 177.021 12.5184 177.115 12.8841C177.205 13.2499 177.393 13.5612 177.665 13.8182C177.937 14.0752 178.343 14.2927 178.872 14.4755C179.402 14.6584 180.11 14.7869 180.986 14.861L187.36 15.4639L187.351 15.4689Z" fill="#1F375E"/>
<path d="M102.525 64.6727C102.525 66.4272 102.124 67.6529 101.317 68.3497C100.51 69.0465 99.0453 69.3925 96.9221 69.3925H88.6815C84.8359 69.3925 82.0792 68.6907 80.4113 67.2822C78.7433 65.8737 77.9119 63.7634 77.9119 60.9464V59.7405C77.9119 56.6665 78.8176 54.4722 80.629 53.1576C82.4405 51.843 85.2715 51.1807 89.1171 51.1807C91.3145 51.1807 93.0369 51.3537 94.2792 51.6997C95.5214 52.0456 96.442 52.4212 97.026 52.8265V51.1807C97.026 50.2664 96.9617 49.4708 96.833 48.7937C96.7043 48.1166 96.3925 47.5532 95.8976 47.0936C95.4027 46.6389 94.69 46.288 93.7545 46.0508C92.8191 45.8136 91.5472 45.695 89.9386 45.695C88.3301 45.695 86.7612 45.7048 85.024 45.7246C83.2818 45.7444 81.7921 45.7691 80.5449 45.8086L81.5892 41.0345C82.6137 40.9999 83.8758 40.9703 85.3803 40.9505C86.88 40.9308 88.4044 40.9209 89.9386 40.9209C94.3683 40.9209 97.5754 41.6968 99.5502 43.2536C101.53 44.8103 102.515 47.1035 102.515 50.1379V64.6777L102.525 64.6727ZM83.2967 60.8871C83.2967 62.1671 83.6827 63.1259 84.4499 63.7683C85.217 64.4108 86.6276 64.7271 88.6815 64.7271H97.031V59.6812C97.031 58.9893 96.9567 58.3864 96.8132 57.8724C96.6647 57.3584 96.3727 56.9482 95.9322 56.6368C95.4917 56.3255 94.8533 56.0982 94.007 55.9499C93.1656 55.8066 92.047 55.7324 90.6563 55.7324H89.3942C88.1866 55.7324 87.1868 55.7967 86.3999 55.9252C85.613 56.0537 84.9894 56.2761 84.534 56.5825C84.0737 56.8938 83.757 57.304 83.5739 57.818C83.3907 58.332 83.3016 58.9695 83.3016 59.7356V60.8871H83.2967Z" fill="#1F375E"/>
<path d="M122.03 40.1499C124.371 40.1499 126.37 40.3624 128.018 40.7825C129.667 41.2026 131.013 41.9439 132.057 43.0065C133.101 44.069 133.859 45.4825 134.339 47.2567C134.814 49.0309 135.051 51.2697 135.051 53.978V56.4491C135.051 58.8608 134.858 60.9365 134.472 62.6761C134.086 64.4158 133.408 65.8391 132.438 66.956C131.468 68.0729 130.142 68.9032 128.454 69.4518C126.766 70.0004 124.608 70.2771 121.97 70.2771C120.248 70.2771 118.793 70.0646 117.605 69.6445C116.412 69.2245 115.452 68.6858 114.72 68.0285V79H108.894V53.7111C108.894 51.1165 109.142 48.9469 109.637 47.2122C110.132 45.4775 110.909 44.0838 111.973 43.041C113.037 41.9983 114.388 41.2569 116.036 40.8171C117.684 40.3772 119.679 40.1598 122.025 40.1598L122.03 40.1499ZM121.975 65.5475C123.515 65.5475 124.752 65.4388 125.682 65.2164C126.618 64.9989 127.35 64.5591 127.88 63.9018C128.409 63.2445 128.761 62.3203 128.924 61.1292C129.088 59.9431 129.172 58.3765 129.172 56.4392V53.9681C129.172 51.9567 129.078 50.3554 128.899 49.1693C128.716 47.9832 128.36 47.0689 127.83 46.4264C127.301 45.7889 126.568 45.3639 125.633 45.1662C124.697 44.9635 123.48 44.8647 121.98 44.8647C120.481 44.8647 119.308 44.9685 118.352 45.1662C117.402 45.3688 116.65 45.779 116.101 46.4017C115.551 47.0244 115.175 47.909 114.972 49.0606C114.769 50.2121 114.67 51.759 114.67 53.6963V57.5907C114.67 59.2018 114.779 60.5164 115.002 61.5394C115.22 62.5625 115.606 63.3779 116.155 63.9809C116.704 64.5838 117.457 64.994 118.407 65.2164C119.357 65.4338 120.55 65.5475 121.975 65.5475Z" fill="#1F375E"/>
<path d="M153.344 40.1499C155.725 40.1499 157.749 40.3624 159.417 40.7825C161.085 41.2026 162.446 41.934 163.51 42.9768C164.569 44.0196 165.351 45.4083 165.846 47.148C166.341 48.8876 166.588 51.072 166.588 53.7012V56.7209C166.588 59.355 166.341 61.5394 165.846 63.2741C165.351 65.0138 164.574 66.4025 163.51 67.4453C162.446 68.4881 161.085 69.2195 159.417 69.6396C157.749 70.0597 155.725 70.2722 153.344 70.2722C150.963 70.2722 148.939 70.0597 147.271 69.6396C145.603 69.2195 144.242 68.4881 143.178 67.4453C142.114 66.4025 141.337 65.0138 140.842 63.2741C140.347 61.5394 140.1 59.3501 140.1 56.7209V53.7012C140.1 51.0671 140.347 48.8826 140.842 47.148C141.337 45.4133 142.114 44.0196 143.178 42.9768C144.242 41.934 145.603 41.2026 147.271 40.7825C148.939 40.3624 150.958 40.1499 153.344 40.1499ZM160.704 53.7012C160.704 51.7639 160.6 50.217 160.402 49.0655C160.199 47.914 159.832 47.0294 159.303 46.4066C158.773 45.7839 158.031 45.3737 157.076 45.1711C156.125 44.9685 154.878 44.8696 153.339 44.8696C151.8 44.8696 150.558 44.9734 149.602 45.1711C148.647 45.3737 147.91 45.7839 147.375 46.4066C146.846 47.0294 146.479 47.914 146.276 49.0655C146.073 50.217 145.974 51.7639 145.974 53.7012V56.7209C145.974 58.6582 146.073 60.2051 146.276 61.3566C146.479 62.5081 146.846 63.3977 147.375 64.0155C147.905 64.6382 148.647 65.0484 149.602 65.251C150.553 65.4536 151.8 65.5525 153.339 65.5525C154.878 65.5525 156.121 65.4536 157.076 65.251C158.026 65.0484 158.768 64.6382 159.303 64.0155C159.832 63.3927 160.199 62.5081 160.402 61.3566C160.605 60.2051 160.704 58.6582 160.704 56.7209V53.7012Z" fill="#1F375E"/>
<path d="M172.295 34.3379L178.061 33.2951V41.0296H188.499L187.509 45.8037H178.061V58.9695C178.061 60.1754 178.125 61.1638 178.254 61.9298C178.382 62.6959 178.63 63.284 178.996 63.6843C179.362 64.0896 179.882 64.3614 180.56 64.5096C181.238 64.6579 182.104 64.7271 183.168 64.7271H188.167L187.177 69.3875H183.223C181.025 69.3875 179.219 69.2244 177.813 68.8933C176.403 68.5622 175.284 68.0087 174.463 67.2179C173.636 66.4321 173.072 65.3794 172.76 64.0648C172.448 62.7502 172.295 61.1045 172.295 59.1277V34.333V34.3379Z" fill="#1F375E"/>
<path d="M197.893 57.3238C197.893 58.8608 197.977 60.1013 198.14 61.0551C198.303 62.004 198.635 62.7552 199.13 63.3038C199.625 63.8524 200.313 64.228 201.189 64.4306C202.07 64.6332 203.238 64.7321 204.703 64.7321H208.741C210.37 64.7321 212.488 64.6975 215.086 64.6233L214.096 69.3974C212.963 69.432 211.988 69.4617 211.186 69.4814C210.38 69.5012 209.637 69.5111 208.959 69.5111H204.703C202.099 69.5111 199.986 69.2096 198.358 68.6067C196.729 68.0038 195.448 67.1438 194.512 66.0269C193.577 64.91 192.948 63.5558 192.617 61.9694C192.285 60.378 192.122 58.6137 192.122 56.6764V53.6024C192.122 51.5168 192.295 49.6437 192.641 47.9782C192.988 46.3127 193.631 44.9042 194.567 43.7527C195.502 42.6012 196.799 41.7166 198.467 41.0939C200.135 40.4711 202.302 40.1598 204.975 40.1598C207.43 40.1598 209.434 40.4415 210.988 41.0098C212.542 41.5782 213.77 42.3442 214.671 43.3129C215.566 44.2815 216.18 45.3984 216.512 46.6587C216.843 47.9189 217.007 49.2286 217.007 50.5827V51.4081C217.007 52.7227 216.932 53.7655 216.789 54.5364C216.64 55.3025 216.403 55.9005 216.076 56.3206C215.745 56.7406 215.334 57.0174 214.839 57.1459C214.344 57.2744 213.75 57.3386 213.052 57.3386H197.888L197.893 57.3238ZM204.703 44.7065C203.238 44.7065 202.065 44.8153 201.189 45.0377C200.313 45.2601 199.625 45.6703 199.13 46.2732C198.635 46.8761 198.303 47.7114 198.14 48.769C197.977 49.8315 197.893 51.2005 197.893 52.8858H211.572V51.0226C211.572 49.8167 211.468 48.7986 211.27 47.9782C211.068 47.1529 210.701 46.5055 210.172 46.031C209.642 45.5566 208.934 45.2156 208.058 45.0179C207.177 44.8153 206.064 44.7164 204.708 44.7164L204.703 44.7065Z" fill="#1F375E"/>
<path d="M228.385 52.1642L240.253 41.0296H247.559L233.77 53.5925L248.989 69.3925H241.407L228.385 55.7324V69.3925H222.619V28.6298H228.385V52.1642Z" fill="#1F375E"/>
<path d="M41.7334 8.75783L45.8982 0.286017C45.6053 0.13179 45.2804 0.0413818 44.9395 0.0413818H23.7C22.5763 0.0413818 21.6656 0.950786 21.6656 2.07292V21.6756H2.03448C0.910721 21.6756 0 22.585 0 23.7072V44.9159C0 46.0381 0.910721 46.9475 2.03448 46.9475H22.9118L41.6908 8.74188L41.7334 8.75783Z" fill="#1F375E"/>
<path d="M66.3921 21.766H45.4668L28.6584 55.7969H28.6424L22.4325 68.3637C22.7467 68.5551 23.1089 68.6668 23.487 68.6668H44.7265C45.8503 68.6668 46.761 67.7574 46.761 66.6353V47.0326H66.3921C67.5158 47.0326 68.4266 46.1232 68.4266 45.001V23.7922C68.4266 22.6701 67.5158 21.7607 66.3921 21.7607V21.766Z" fill="#98CEC7"/>
</svg>
