<svg width="34" height="26" viewBox="0 0 34 26" fill="none" xmlns="http://www.w3.org/2000/svg">
<path d="M32.3981 8.73593C32.6496 8.532 33.0237 8.72277 33.0237 9.04511V22.4979C33.0237 24.2412 31.637 25.6555 29.9277 25.6555H3.09597C1.38674 25.6555 0 24.2412 0 22.4979V9.05169C0 8.72277 0.367647 8.53857 0.625645 8.7425C2.07043 9.88714 3.98607 11.341 10.565 16.2156C11.9259 17.2286 14.2221 19.36 16.5119 19.3469C18.8145 19.3666 21.1558 17.1892 22.4652 16.2156C29.0441 11.341 30.9533 9.88056 32.3981 8.73593ZM16.5119 17.2352C18.0082 17.2615 20.1625 15.3143 21.2461 14.5117C29.8052 8.17676 30.4566 7.62418 32.4303 6.04536C32.8044 5.74934 33.0237 5.28885 33.0237 4.80205V3.55216C33.0237 1.80888 31.637 0.394531 29.9277 0.394531H3.09597C1.38674 0.394531 0 1.80888 0 3.55216V4.80205C0 5.28885 0.219298 5.74276 0.593395 6.04536C2.56708 7.6176 3.21852 8.17676 11.7776 14.5117C12.8612 15.3143 15.0155 17.2615 16.5119 17.2352Z" fill="#F8F8F8"/>
</svg>
