<svg width="40" height="40" viewBox="0 0 40 40" fill="none" xmlns="http://www.w3.org/2000/svg">
<g clip-path="url(#clip0_611_2713)">
<path d="M31.5939 4.94101C30.0651 3.38472 28.2432 2.14678 26.2332 1.29873C24.2233 0.450676 22.0652 0.00931426 19.8837 0.00014584C17.7022 -0.00902258 15.5405 0.414184 13.5236 1.24531C11.5066 2.07644 9.67426 3.29902 8.13251 4.8424C6.59076 6.38579 5.37013 8.21939 4.54114 10.2373C3.71215 12.2551 3.29124 14.4173 3.30272 16.5988C3.3142 18.7803 3.75785 20.9378 4.60804 22.9469C5.45822 24.9559 6.69809 26.7766 8.256 28.3036L19.9183 39.7117L31.5939 28.2904C34.6899 25.1939 36.4291 20.9945 36.4291 16.6157C36.4291 12.237 34.6899 8.03751 31.5939 4.94101ZM28.1743 23.2097H11.6624V15.6291C11.6643 14.9948 11.8116 14.3694 12.093 13.8009C12.3744 13.2325 12.7823 12.7361 13.2855 12.3499L17.4135 9.19611C18.1339 8.64826 19.0141 8.35163 19.9192 8.35163C20.8242 8.35163 21.7044 8.64826 22.4248 9.19611L26.5528 12.3499C27.0555 12.7364 27.463 13.2329 27.7441 13.8013C28.0251 14.3698 28.1723 14.995 28.1743 15.6291V23.2097ZM24.5416 14.9753C24.6442 15.0522 24.7274 15.1519 24.7847 15.2665C24.842 15.3812 24.8719 15.5076 24.8719 15.6357V19.9074H21.5695V16.605H18.2671V19.9074H14.9648V15.6291C14.9648 15.501 14.9946 15.3746 15.0519 15.2599C15.1092 15.1453 15.1925 15.0456 15.295 14.9687L19.423 11.8165C19.567 11.7062 19.7435 11.6464 19.9249 11.6464C20.1064 11.6464 20.2828 11.7062 20.4269 11.8165L24.5416 14.9753Z" fill="#F8F8F8"/>
</g>
<defs>
<clipPath id="clip0_611_2713">
<rect width="39.6285" height="39.6285" fill="white"/>
</clipPath>
</defs>
</svg>
