<svg width="42" height="69" viewBox="0 0 42 69" fill="none" xmlns="http://www.w3.org/2000/svg">
<path fill-rule="evenodd" clip-rule="evenodd" d="M4 21.3387L20 34.5L4 47.6613V60L35 34.5L4 9V21.3387Z" fill="#E89454"/>
<path d="M20 34.5L22.5411 37.5892L26.2965 34.5L22.5411 31.4108L20 34.5ZM4 21.3387H0V23.2278L1.45892 24.4279L4 21.3387ZM4 47.6613L1.45892 44.5721L0 45.7722V47.6613H4ZM4 60H0V68.4697L6.54108 63.0892L4 60ZM35 34.5L37.5411 37.5892L41.2965 34.5L37.5411 31.4108L35 34.5ZM4 9L6.54108 5.91084L0 0.530274L0 9H4ZM22.5411 31.4108L6.54108 18.2496L1.45892 24.4279L17.4589 37.5892L22.5411 31.4108ZM6.54108 50.7504L22.5411 37.5892L17.4589 31.4108L1.45892 44.5721L6.54108 50.7504ZM0 47.6613V60H8V47.6613H0ZM6.54108 63.0892L37.5411 37.5892L32.4589 31.4108L1.45892 56.9108L6.54108 63.0892ZM37.5411 31.4108L6.54108 5.91084L1.45892 12.0892L32.4589 37.5892L37.5411 31.4108ZM0 9V21.3387H8V9H0Z" fill="#FF9040"/>
</svg>
