<svg width="34" height="35" viewBox="0 0 34 35" fill="none" xmlns="http://www.w3.org/2000/svg">
<path d="M32.0819 24.195L24.8579 21.0373C24.5493 20.9031 24.2063 20.8749 23.8806 20.9567C23.5548 21.0386 23.264 21.2262 23.0519 21.4912L19.8526 25.4778C14.8317 23.0633 10.7911 18.9422 8.42377 13.8213L12.3325 10.5584C12.5929 10.3424 12.7772 10.0458 12.8575 9.7134C12.9378 9.38104 12.9097 9.03104 12.7776 8.7164L9.68153 1.34848C9.53648 1.00929 9.27993 0.732363 8.95613 0.565435C8.63233 0.398508 8.26156 0.352047 7.90777 0.434064L1.19971 2.0129C0.858612 2.09324 0.554282 2.28912 0.336393 2.56858C0.118504 2.84804 -7.85752e-05 3.19457 3.90629e-08 3.55162C3.90629e-08 20.4255 13.4097 34.0759 29.9283 34.0759C30.2784 34.0761 30.6184 33.9552 30.8925 33.733C31.1666 33.5107 31.3588 33.2003 31.4376 32.8523L32.9856 26.0106C33.0655 25.648 33.019 25.2684 32.854 24.937C32.6891 24.6056 32.4161 24.3432 32.0819 24.195Z" fill="#F8F8F8"/>
</svg>
