<svg width="36" height="53" viewBox="0 0 36 53" fill="none" xmlns="http://www.w3.org/2000/svg">
<path fill-rule="evenodd" clip-rule="evenodd" d="M4.87732 13.9604L21.3494 26.147L4.87732 38.3335V44.1367L29.1933 26.147L4.87732 8.15723V13.9604Z" fill="#98CEC7"/>
<path d="M21.3494 26.147L23.7285 29.3626L28.0749 26.147L23.7285 22.9313L21.3494 26.147ZM4.87732 13.9604H0.877319V15.9767L2.4983 17.176L4.87732 13.9604ZM4.87732 38.3335L2.4983 35.1179L0.877319 36.3172V38.3335H4.87732ZM4.87732 44.1367H0.877319V52.0717L7.25634 47.3523L4.87732 44.1367ZM29.1933 26.147L31.5723 29.3626L35.9188 26.147L31.5723 22.9313L29.1933 26.147ZM4.87732 8.15723L7.25634 4.9416L0.877319 0.2222V8.15723H4.87732ZM23.7285 22.9313L7.25634 10.7447L2.4983 17.176L18.9704 29.3626L23.7285 22.9313ZM7.25634 41.5492L23.7285 29.3626L18.9704 22.9313L2.4983 35.1179L7.25634 41.5492ZM0.877319 38.3335V44.1367H8.87732V38.3335H0.877319ZM7.25634 47.3523L31.5723 29.3626L26.8143 22.9313L2.4983 40.9211L7.25634 47.3523ZM31.5723 22.9313L7.25634 4.9416L2.4983 11.3729L26.8143 29.3626L31.5723 22.9313ZM0.877319 8.15723V13.9604H8.87732V8.15723H0.877319Z" fill="#FF9040"/>
</svg>
